#N canvas 427 243 580 357 10;
#X msg 89 116 Hello World!;
#X obj 89 155 print;
#X obj 89 77 r test;
#X obj 303 119 s test;
#X obj 303 75 bng 15 250 50 0 empty empty empty 17 7 0 10 -262144 -1
-1;
#X connect 0 0 1 0;
#X connect 2 0 0 0;
#X connect 4 0 3 0;
