#N canvas 427 243 580 357 10;
#X msg 45 58 Hello World!;
#X obj 45 97 print;
#X obj 303 75 bng 15 250 50 0 empty empty empty 17 7 0 10 -262144 -1
-1;
#X obj 86 302 dac~;
#X obj 88 251 *~ 0.1;
#X obj 310 234 s freq;
#X floatatom 310 175 5 0 0 0 - - -;
#X obj 90 214 osc~;
#X floatatom 91 185 5 0 0 0 - - -;
#X obj 89 157 r freq;
#X obj 45 19 r hello;
#X obj 303 119 s hello;
#X connect 0 0 1 0;
#X connect 2 0 11 0;
#X connect 4 0 3 0;
#X connect 4 0 3 1;
#X connect 6 0 5 0;
#X connect 7 0 4 0;
#X connect 8 0 7 0;
#X connect 9 0 8 0;
#X connect 10 0 0 0;
